<mxfile host="app.diagrams.net" agent="Mozilla/5.0 (Windows NT 10.0; Win64; x64) AppleWebKit/537.36 (KHTML, like Gecko) Chrome/129.0.0.0 Safari/537.36" version="24.7.17">
  <diagram name="Page-1" id="e56a1550-8fbb-45ad-956c-1786394a9013">
    <mxGraphModel dx="1434" dy="738" grid="1" gridSize="10" guides="1" tooltips="1" connect="1" arrows="1" fold="1" page="1" pageScale="1" pageWidth="1100" pageHeight="850" background="none" math="0" shadow="0">
      <root>
        <mxCell id="0" />
        <mxCell id="1" parent="0" />
        <mxCell id="sIfo7QnTkBE5jTo8Vn5F-1" value="dns_tenant_mgr_t" style="swimlane;fontStyle=0;childLayout=stackLayout;horizontal=1;startSize=26;horizontalStack=0;resizeParent=1;resizeParentMax=0;resizeLast=0;collapsible=1;marginBottom=0;align=center;fontSize=14;" vertex="1" parent="1">
          <mxGeometry x="200" y="280" width="160" height="180" as="geometry" />
        </mxCell>
        <mxCell id="sIfo7QnTkBE5jTo8Vn5F-2" value="l1st_zone" style="text;strokeColor=none;fillColor=none;spacingLeft=4;spacingRight=4;overflow=hidden;rotatable=0;points=[[0,0.5],[1,0.5]];portConstraint=eastwest;fontSize=12;whiteSpace=wrap;html=1;" vertex="1" parent="sIfo7QnTkBE5jTo8Vn5F-1">
          <mxGeometry y="26" width="160" height="30" as="geometry" />
        </mxCell>
        <mxCell id="sIfo7QnTkBE5jTo8Vn5F-3" value="l2nd_zone" style="text;strokeColor=none;fillColor=none;spacingLeft=4;spacingRight=4;overflow=hidden;rotatable=0;points=[[0,0.5],[1,0.5]];portConstraint=eastwest;fontSize=12;whiteSpace=wrap;html=1;" vertex="1" parent="sIfo7QnTkBE5jTo8Vn5F-1">
          <mxGeometry y="56" width="160" height="30" as="geometry" />
        </mxCell>
        <mxCell id="sIfo7QnTkBE5jTo8Vn5F-4" value="export_id" style="text;strokeColor=none;fillColor=none;spacingLeft=4;spacingRight=4;overflow=hidden;rotatable=0;points=[[0,0.5],[1,0.5]];portConstraint=eastwest;fontSize=12;whiteSpace=wrap;html=1;" vertex="1" parent="sIfo7QnTkBE5jTo8Vn5F-1">
          <mxGeometry y="86" width="160" height="30" as="geometry" />
        </mxCell>
        <mxCell id="sIfo7QnTkBE5jTo8Vn5F-11" value="threat_action" style="text;strokeColor=none;fillColor=none;spacingLeft=4;spacingRight=4;overflow=hidden;rotatable=0;points=[[0,0.5],[1,0.5]];portConstraint=eastwest;fontSize=12;whiteSpace=wrap;html=1;" vertex="1" parent="sIfo7QnTkBE5jTo8Vn5F-1">
          <mxGeometry y="116" width="160" height="30" as="geometry" />
        </mxCell>
        <mxCell id="sIfo7QnTkBE5jTo8Vn5F-10" value="tenant_policy" style="text;strokeColor=none;fillColor=none;spacingLeft=4;spacingRight=4;overflow=hidden;rotatable=0;points=[[0,0.5],[1,0.5]];portConstraint=eastwest;fontSize=12;whiteSpace=wrap;html=1;" vertex="1" parent="sIfo7QnTkBE5jTo8Vn5F-1">
          <mxGeometry y="146" width="160" height="34" as="geometry" />
        </mxCell>
        <mxCell id="sIfo7QnTkBE5jTo8Vn5F-5" value="redirect_info_t" style="swimlane;fontStyle=0;childLayout=stackLayout;horizontal=1;startSize=26;horizontalStack=0;resizeParent=1;resizeParentMax=0;resizeLast=0;collapsible=1;marginBottom=0;align=center;fontSize=14;" vertex="1" parent="1">
          <mxGeometry x="460" y="1190" width="160" height="116" as="geometry" />
        </mxCell>
        <mxCell id="sIfo7QnTkBE5jTo8Vn5F-6" value="enable" style="text;strokeColor=none;fillColor=none;spacingLeft=4;spacingRight=4;overflow=hidden;rotatable=0;points=[[0,0.5],[1,0.5]];portConstraint=eastwest;fontSize=12;whiteSpace=wrap;html=1;" vertex="1" parent="sIfo7QnTkBE5jTo8Vn5F-5">
          <mxGeometry y="26" width="160" height="30" as="geometry" />
        </mxCell>
        <mxCell id="sIfo7QnTkBE5jTo8Vn5F-7" value="ipv4" style="text;strokeColor=none;fillColor=none;spacingLeft=4;spacingRight=4;overflow=hidden;rotatable=0;points=[[0,0.5],[1,0.5]];portConstraint=eastwest;fontSize=12;whiteSpace=wrap;html=1;" vertex="1" parent="sIfo7QnTkBE5jTo8Vn5F-5">
          <mxGeometry y="56" width="160" height="30" as="geometry" />
        </mxCell>
        <mxCell id="sIfo7QnTkBE5jTo8Vn5F-8" value="ipv6" style="text;strokeColor=none;fillColor=none;spacingLeft=4;spacingRight=4;overflow=hidden;rotatable=0;points=[[0,0.5],[1,0.5]];portConstraint=eastwest;fontSize=12;whiteSpace=wrap;html=1;" vertex="1" parent="sIfo7QnTkBE5jTo8Vn5F-5">
          <mxGeometry y="86" width="160" height="30" as="geometry" />
        </mxCell>
        <mxCell id="sIfo7QnTkBE5jTo8Vn5F-12" value="dns_tenant_policy_t" style="swimlane;fontStyle=0;childLayout=stackLayout;horizontal=1;startSize=26;horizontalStack=0;resizeParent=1;resizeParentMax=0;resizeLast=0;collapsible=1;marginBottom=0;align=center;fontSize=14;" vertex="1" parent="1">
          <mxGeometry x="440" y="470" width="160" height="296" as="geometry" />
        </mxCell>
        <mxCell id="sIfo7QnTkBE5jTo8Vn5F-13" value="id" style="text;strokeColor=none;fillColor=none;spacingLeft=4;spacingRight=4;overflow=hidden;rotatable=0;points=[[0,0.5],[1,0.5]];portConstraint=eastwest;fontSize=12;whiteSpace=wrap;html=1;" vertex="1" parent="sIfo7QnTkBE5jTo8Vn5F-12">
          <mxGeometry y="26" width="160" height="30" as="geometry" />
        </mxCell>
        <mxCell id="sIfo7QnTkBE5jTo8Vn5F-14" value="cache_tbl" style="text;strokeColor=none;fillColor=none;spacingLeft=4;spacingRight=4;overflow=hidden;rotatable=0;points=[[0,0.5],[1,0.5]];portConstraint=eastwest;fontSize=12;whiteSpace=wrap;html=1;" vertex="1" parent="sIfo7QnTkBE5jTo8Vn5F-12">
          <mxGeometry y="56" width="160" height="30" as="geometry" />
        </mxCell>
        <mxCell id="sIfo7QnTkBE5jTo8Vn5F-15" value="custom_domin_tbl" style="text;strokeColor=none;fillColor=none;spacingLeft=4;spacingRight=4;overflow=hidden;rotatable=0;points=[[0,0.5],[1,0.5]];portConstraint=eastwest;fontSize=12;whiteSpace=wrap;html=1;" vertex="1" parent="sIfo7QnTkBE5jTo8Vn5F-12">
          <mxGeometry y="86" width="160" height="30" as="geometry" />
        </mxCell>
        <mxCell id="sIfo7QnTkBE5jTo8Vn5F-19" value="tp_tag_tbl" style="text;strokeColor=none;fillColor=none;spacingLeft=4;spacingRight=4;overflow=hidden;rotatable=0;points=[[0,0.5],[1,0.5]];portConstraint=eastwest;fontSize=12;whiteSpace=wrap;html=1;" vertex="1" parent="sIfo7QnTkBE5jTo8Vn5F-12">
          <mxGeometry y="116" width="160" height="30" as="geometry" />
        </mxCell>
        <mxCell id="sIfo7QnTkBE5jTo8Vn5F-18" value="hostaddr_tbl" style="text;strokeColor=none;fillColor=none;spacingLeft=4;spacingRight=4;overflow=hidden;rotatable=0;points=[[0,0.5],[1,0.5]];portConstraint=eastwest;fontSize=12;whiteSpace=wrap;html=1;" vertex="1" parent="sIfo7QnTkBE5jTo8Vn5F-12">
          <mxGeometry y="146" width="160" height="30" as="geometry" />
        </mxCell>
        <mxCell id="sIfo7QnTkBE5jTo8Vn5F-17" value="hostaddr_id_tbl" style="text;strokeColor=none;fillColor=none;spacingLeft=4;spacingRight=4;overflow=hidden;rotatable=0;points=[[0,0.5],[1,0.5]];portConstraint=eastwest;fontSize=12;whiteSpace=wrap;html=1;" vertex="1" parent="sIfo7QnTkBE5jTo8Vn5F-12">
          <mxGeometry y="176" width="160" height="30" as="geometry" />
        </mxCell>
        <mxCell id="sIfo7QnTkBE5jTo8Vn5F-16" value="tplist" style="text;strokeColor=none;fillColor=none;spacingLeft=4;spacingRight=4;overflow=hidden;rotatable=0;points=[[0,0.5],[1,0.5]];portConstraint=eastwest;fontSize=12;whiteSpace=wrap;html=1;" vertex="1" parent="sIfo7QnTkBE5jTo8Vn5F-12">
          <mxGeometry y="206" width="160" height="30" as="geometry" />
        </mxCell>
        <mxCell id="sIfo7QnTkBE5jTo8Vn5F-21" value="action" style="text;strokeColor=none;fillColor=none;spacingLeft=4;spacingRight=4;overflow=hidden;rotatable=0;points=[[0,0.5],[1,0.5]];portConstraint=eastwest;fontSize=12;whiteSpace=wrap;html=1;" vertex="1" parent="sIfo7QnTkBE5jTo8Vn5F-12">
          <mxGeometry y="236" width="160" height="30" as="geometry" />
        </mxCell>
        <mxCell id="sIfo7QnTkBE5jTo8Vn5F-20" value="redirect" style="text;strokeColor=none;fillColor=none;spacingLeft=4;spacingRight=4;overflow=hidden;rotatable=0;points=[[0,0.5],[1,0.5]];portConstraint=eastwest;fontSize=12;whiteSpace=wrap;html=1;" vertex="1" parent="sIfo7QnTkBE5jTo8Vn5F-12">
          <mxGeometry y="266" width="160" height="30" as="geometry" />
        </mxCell>
        <mxCell id="sIfo7QnTkBE5jTo8Vn5F-22" value="" style="edgeStyle=orthogonalEdgeStyle;rounded=0;orthogonalLoop=1;jettySize=auto;html=1;entryX=0.5;entryY=0;entryDx=0;entryDy=0;" edge="1" parent="1" source="sIfo7QnTkBE5jTo8Vn5F-10" target="sIfo7QnTkBE5jTo8Vn5F-12">
          <mxGeometry relative="1" as="geometry">
            <mxPoint x="450" y="310" as="targetPoint" />
          </mxGeometry>
        </mxCell>
        <mxCell id="sIfo7QnTkBE5jTo8Vn5F-23" value="" style="edgeStyle=orthogonalEdgeStyle;rounded=0;orthogonalLoop=1;jettySize=auto;html=1;entryX=0.5;entryY=0;entryDx=0;entryDy=0;" edge="1" parent="1" source="sIfo7QnTkBE5jTo8Vn5F-20" target="sIfo7QnTkBE5jTo8Vn5F-5">
          <mxGeometry relative="1" as="geometry" />
        </mxCell>
        <mxCell id="sIfo7QnTkBE5jTo8Vn5F-24" value="dns_ternant_internetacl_t" style="swimlane;fontStyle=0;childLayout=stackLayout;horizontal=1;startSize=26;horizontalStack=0;resizeParent=1;resizeParentMax=0;resizeLast=0;collapsible=1;marginBottom=0;align=center;fontSize=14;" vertex="1" parent="1">
          <mxGeometry x="700" y="920" width="160" height="236" as="geometry" />
        </mxCell>
        <mxCell id="sIfo7QnTkBE5jTo8Vn5F-25" value="link" style="text;strokeColor=none;fillColor=none;spacingLeft=4;spacingRight=4;overflow=hidden;rotatable=0;points=[[0,0.5],[1,0.5]];portConstraint=eastwest;fontSize=12;whiteSpace=wrap;html=1;" vertex="1" parent="sIfo7QnTkBE5jTo8Vn5F-24">
          <mxGeometry y="26" width="160" height="30" as="geometry" />
        </mxCell>
        <mxCell id="sIfo7QnTkBE5jTo8Vn5F-26" value="id" style="text;strokeColor=none;fillColor=none;spacingLeft=4;spacingRight=4;overflow=hidden;rotatable=0;points=[[0,0.5],[1,0.5]];portConstraint=eastwest;fontSize=12;whiteSpace=wrap;html=1;" vertex="1" parent="sIfo7QnTkBE5jTo8Vn5F-24">
          <mxGeometry y="56" width="160" height="30" as="geometry" />
        </mxCell>
        <mxCell id="sIfo7QnTkBE5jTo8Vn5F-27" value="zonelist" style="text;strokeColor=none;fillColor=none;spacingLeft=4;spacingRight=4;overflow=hidden;rotatable=0;points=[[0,0.5],[1,0.5]];portConstraint=eastwest;fontSize=12;whiteSpace=wrap;html=1;" vertex="1" parent="sIfo7QnTkBE5jTo8Vn5F-24">
          <mxGeometry y="86" width="160" height="30" as="geometry" />
        </mxCell>
        <mxCell id="sIfo7QnTkBE5jTo8Vn5F-31" value="taglist" style="text;strokeColor=none;fillColor=none;spacingLeft=4;spacingRight=4;overflow=hidden;rotatable=0;points=[[0,0.5],[1,0.5]];portConstraint=eastwest;fontSize=12;whiteSpace=wrap;html=1;" vertex="1" parent="sIfo7QnTkBE5jTo8Vn5F-24">
          <mxGeometry y="116" width="160" height="30" as="geometry" />
        </mxCell>
        <mxCell id="sIfo7QnTkBE5jTo8Vn5F-30" value="tplist" style="text;strokeColor=none;fillColor=none;spacingLeft=4;spacingRight=4;overflow=hidden;rotatable=0;points=[[0,0.5],[1,0.5]];portConstraint=eastwest;fontSize=12;whiteSpace=wrap;html=1;" vertex="1" parent="sIfo7QnTkBE5jTo8Vn5F-24">
          <mxGeometry y="146" width="160" height="30" as="geometry" />
        </mxCell>
        <mxCell id="sIfo7QnTkBE5jTo8Vn5F-29" value="exiplist" style="text;strokeColor=none;fillColor=none;spacingLeft=4;spacingRight=4;overflow=hidden;rotatable=0;points=[[0,0.5],[1,0.5]];portConstraint=eastwest;fontSize=12;whiteSpace=wrap;html=1;" vertex="1" parent="sIfo7QnTkBE5jTo8Vn5F-24">
          <mxGeometry y="176" width="160" height="30" as="geometry" />
        </mxCell>
        <mxCell id="sIfo7QnTkBE5jTo8Vn5F-28" value="curr_flag" style="text;strokeColor=none;fillColor=none;spacingLeft=4;spacingRight=4;overflow=hidden;rotatable=0;points=[[0,0.5],[1,0.5]];portConstraint=eastwest;fontSize=12;whiteSpace=wrap;html=1;" vertex="1" parent="sIfo7QnTkBE5jTo8Vn5F-24">
          <mxGeometry y="206" width="160" height="30" as="geometry" />
        </mxCell>
        <mxCell id="sIfo7QnTkBE5jTo8Vn5F-33" value="" style="edgeStyle=orthogonalEdgeStyle;rounded=0;orthogonalLoop=1;jettySize=auto;html=1;entryX=0.5;entryY=0;entryDx=0;entryDy=0;exitX=1;exitY=0.5;exitDx=0;exitDy=0;" edge="1" parent="1" source="sIfo7QnTkBE5jTo8Vn5F-16" target="sIfo7QnTkBE5jTo8Vn5F-24">
          <mxGeometry relative="1" as="geometry" />
        </mxCell>
        <mxCell id="sIfo7QnTkBE5jTo8Vn5F-34" value="dns_ternant_zonelist_t" style="swimlane;fontStyle=0;childLayout=stackLayout;horizontal=1;startSize=26;horizontalStack=0;resizeParent=1;resizeParentMax=0;resizeLast=0;collapsible=1;marginBottom=0;align=center;fontSize=14;" vertex="1" parent="1">
          <mxGeometry x="1040" y="970" width="160" height="86" as="geometry" />
        </mxCell>
        <mxCell id="sIfo7QnTkBE5jTo8Vn5F-35" value="zoneid" style="text;strokeColor=none;fillColor=none;spacingLeft=4;spacingRight=4;overflow=hidden;rotatable=0;points=[[0,0.5],[1,0.5]];portConstraint=eastwest;fontSize=12;whiteSpace=wrap;html=1;" vertex="1" parent="sIfo7QnTkBE5jTo8Vn5F-34">
          <mxGeometry y="26" width="160" height="30" as="geometry" />
        </mxCell>
        <mxCell id="sIfo7QnTkBE5jTo8Vn5F-36" value="link" style="text;strokeColor=none;fillColor=none;spacingLeft=4;spacingRight=4;overflow=hidden;rotatable=0;points=[[0,0.5],[1,0.5]];portConstraint=eastwest;fontSize=12;whiteSpace=wrap;html=1;" vertex="1" parent="sIfo7QnTkBE5jTo8Vn5F-34">
          <mxGeometry y="56" width="160" height="30" as="geometry" />
        </mxCell>
        <mxCell id="sIfo7QnTkBE5jTo8Vn5F-40" value="dns_ternant_taglist_t" style="swimlane;fontStyle=0;childLayout=stackLayout;horizontal=1;startSize=26;horizontalStack=0;resizeParent=1;resizeParentMax=0;resizeLast=0;collapsible=1;marginBottom=0;align=center;fontSize=14;" vertex="1" parent="1">
          <mxGeometry x="1050" y="1090" width="160" height="146" as="geometry" />
        </mxCell>
        <mxCell id="sIfo7QnTkBE5jTo8Vn5F-41" value="tag" style="text;strokeColor=none;fillColor=none;spacingLeft=4;spacingRight=4;overflow=hidden;rotatable=0;points=[[0,0.5],[1,0.5]];portConstraint=eastwest;fontSize=12;whiteSpace=wrap;html=1;" vertex="1" parent="sIfo7QnTkBE5jTo8Vn5F-40">
          <mxGeometry y="26" width="160" height="30" as="geometry" />
        </mxCell>
        <mxCell id="sIfo7QnTkBE5jTo8Vn5F-42" value="listptr" style="text;strokeColor=none;fillColor=none;spacingLeft=4;spacingRight=4;overflow=hidden;rotatable=0;points=[[0,0.5],[1,0.5]];portConstraint=eastwest;fontSize=12;whiteSpace=wrap;html=1;" vertex="1" parent="sIfo7QnTkBE5jTo8Vn5F-40">
          <mxGeometry y="56" width="160" height="30" as="geometry" />
        </mxCell>
        <mxCell id="sIfo7QnTkBE5jTo8Vn5F-43" value="nodeptr" style="text;strokeColor=none;fillColor=none;spacingLeft=4;spacingRight=4;overflow=hidden;rotatable=0;points=[[0,0.5],[1,0.5]];portConstraint=eastwest;fontSize=12;whiteSpace=wrap;html=1;" vertex="1" parent="sIfo7QnTkBE5jTo8Vn5F-40">
          <mxGeometry y="86" width="160" height="30" as="geometry" />
        </mxCell>
        <mxCell id="sIfo7QnTkBE5jTo8Vn5F-44" value="link" style="text;strokeColor=none;fillColor=none;spacingLeft=4;spacingRight=4;overflow=hidden;rotatable=0;points=[[0,0.5],[1,0.5]];portConstraint=eastwest;fontSize=12;whiteSpace=wrap;html=1;" vertex="1" parent="sIfo7QnTkBE5jTo8Vn5F-40">
          <mxGeometry y="116" width="160" height="30" as="geometry" />
        </mxCell>
        <mxCell id="sIfo7QnTkBE5jTo8Vn5F-45" value="" style="edgeStyle=orthogonalEdgeStyle;rounded=0;orthogonalLoop=1;jettySize=auto;html=1;entryX=0;entryY=0.5;entryDx=0;entryDy=0;" edge="1" parent="1" source="sIfo7QnTkBE5jTo8Vn5F-31" target="sIfo7QnTkBE5jTo8Vn5F-41">
          <mxGeometry relative="1" as="geometry">
            <Array as="points">
              <mxPoint x="990" y="1051" />
              <mxPoint x="990" y="1131" />
            </Array>
          </mxGeometry>
        </mxCell>
        <mxCell id="sIfo7QnTkBE5jTo8Vn5F-46" value="dns_ternant_timepolicylist_t" style="swimlane;fontStyle=0;childLayout=stackLayout;horizontal=1;startSize=26;horizontalStack=0;resizeParent=1;resizeParentMax=0;resizeLast=0;collapsible=1;marginBottom=0;align=center;fontSize=14;" vertex="1" parent="1">
          <mxGeometry x="1050" y="1260" width="190" height="146" as="geometry" />
        </mxCell>
        <mxCell id="sIfo7QnTkBE5jTo8Vn5F-47" value="week" style="text;strokeColor=none;fillColor=none;spacingLeft=4;spacingRight=4;overflow=hidden;rotatable=0;points=[[0,0.5],[1,0.5]];portConstraint=eastwest;fontSize=12;whiteSpace=wrap;html=1;" vertex="1" parent="sIfo7QnTkBE5jTo8Vn5F-46">
          <mxGeometry y="26" width="190" height="30" as="geometry" />
        </mxCell>
        <mxCell id="sIfo7QnTkBE5jTo8Vn5F-48" value="start" style="text;strokeColor=none;fillColor=none;spacingLeft=4;spacingRight=4;overflow=hidden;rotatable=0;points=[[0,0.5],[1,0.5]];portConstraint=eastwest;fontSize=12;whiteSpace=wrap;html=1;" vertex="1" parent="sIfo7QnTkBE5jTo8Vn5F-46">
          <mxGeometry y="56" width="190" height="30" as="geometry" />
        </mxCell>
        <mxCell id="sIfo7QnTkBE5jTo8Vn5F-49" value="end" style="text;strokeColor=none;fillColor=none;spacingLeft=4;spacingRight=4;overflow=hidden;rotatable=0;points=[[0,0.5],[1,0.5]];portConstraint=eastwest;fontSize=12;whiteSpace=wrap;html=1;" vertex="1" parent="sIfo7QnTkBE5jTo8Vn5F-46">
          <mxGeometry y="86" width="190" height="30" as="geometry" />
        </mxCell>
        <mxCell id="sIfo7QnTkBE5jTo8Vn5F-51" value="link" style="text;strokeColor=none;fillColor=none;spacingLeft=4;spacingRight=4;overflow=hidden;rotatable=0;points=[[0,0.5],[1,0.5]];portConstraint=eastwest;fontSize=12;whiteSpace=wrap;html=1;" vertex="1" parent="sIfo7QnTkBE5jTo8Vn5F-46">
          <mxGeometry y="116" width="190" height="30" as="geometry" />
        </mxCell>
        <mxCell id="sIfo7QnTkBE5jTo8Vn5F-52" value="" style="edgeStyle=orthogonalEdgeStyle;rounded=0;orthogonalLoop=1;jettySize=auto;html=1;entryX=0;entryY=0.5;entryDx=0;entryDy=0;exitX=1;exitY=0.5;exitDx=0;exitDy=0;" edge="1" parent="1" source="sIfo7QnTkBE5jTo8Vn5F-30" target="sIfo7QnTkBE5jTo8Vn5F-51">
          <mxGeometry relative="1" as="geometry">
            <mxPoint x="610" y="761" as="sourcePoint" />
            <mxPoint x="780" y="790" as="targetPoint" />
          </mxGeometry>
        </mxCell>
        <mxCell id="sIfo7QnTkBE5jTo8Vn5F-54" value="exipentry" style="swimlane;fontStyle=0;childLayout=stackLayout;horizontal=1;startSize=26;horizontalStack=0;resizeParent=1;resizeParentMax=0;resizeLast=0;collapsible=1;marginBottom=0;align=center;fontSize=14;" vertex="1" parent="1">
          <mxGeometry x="1065" y="1440" width="160" height="56" as="geometry" />
        </mxCell>
        <mxCell id="sIfo7QnTkBE5jTo8Vn5F-55" value="exip" style="text;strokeColor=none;fillColor=none;spacingLeft=4;spacingRight=4;overflow=hidden;rotatable=0;points=[[0,0.5],[1,0.5]];portConstraint=eastwest;fontSize=12;whiteSpace=wrap;html=1;" vertex="1" parent="sIfo7QnTkBE5jTo8Vn5F-54">
          <mxGeometry y="26" width="160" height="30" as="geometry" />
        </mxCell>
        <mxCell id="sIfo7QnTkBE5jTo8Vn5F-58" value="" style="edgeStyle=orthogonalEdgeStyle;rounded=0;orthogonalLoop=1;jettySize=auto;html=1;entryX=0;entryY=0.5;entryDx=0;entryDy=0;exitX=1;exitY=0.5;exitDx=0;exitDy=0;" edge="1" parent="1" source="sIfo7QnTkBE5jTo8Vn5F-29" target="sIfo7QnTkBE5jTo8Vn5F-55">
          <mxGeometry relative="1" as="geometry">
            <mxPoint x="860" y="641" as="sourcePoint" />
            <mxPoint x="1030" y="641" as="targetPoint" />
            <Array as="points">
              <mxPoint x="860" y="1110" />
              <mxPoint x="930" y="1110" />
              <mxPoint x="930" y="1481" />
            </Array>
          </mxGeometry>
        </mxCell>
        <mxCell id="sIfo7QnTkBE5jTo8Vn5F-60" value="" style="edgeStyle=orthogonalEdgeStyle;rounded=0;orthogonalLoop=1;jettySize=auto;html=1;entryX=0;entryY=0.5;entryDx=0;entryDy=0;" edge="1" parent="1" source="sIfo7QnTkBE5jTo8Vn5F-59" target="sIfo7QnTkBE5jTo8Vn5F-13">
          <mxGeometry relative="1" as="geometry" />
        </mxCell>
        <mxCell id="sIfo7QnTkBE5jTo8Vn5F-59" value="g_tenant_rbt" style="whiteSpace=wrap;html=1;align=center;" vertex="1" parent="1">
          <mxGeometry x="240" y="496" width="100" height="40" as="geometry" />
        </mxCell>
        <mxCell id="sIfo7QnTkBE5jTo8Vn5F-61" value="domain_policy_info_t" style="swimlane;fontStyle=0;childLayout=stackLayout;horizontal=1;startSize=26;horizontalStack=0;resizeParent=1;resizeParentMax=0;resizeLast=0;collapsible=1;marginBottom=0;align=center;fontSize=14;" vertex="1" parent="1">
          <mxGeometry x="780" y="290" width="160" height="86" as="geometry" />
        </mxCell>
        <mxCell id="sIfo7QnTkBE5jTo8Vn5F-62" value="zone_cnt" style="text;strokeColor=none;fillColor=none;spacingLeft=4;spacingRight=4;overflow=hidden;rotatable=0;points=[[0,0.5],[1,0.5]];portConstraint=eastwest;fontSize=12;whiteSpace=wrap;html=1;" vertex="1" parent="sIfo7QnTkBE5jTo8Vn5F-61">
          <mxGeometry y="26" width="160" height="30" as="geometry" />
        </mxCell>
        <mxCell id="sIfo7QnTkBE5jTo8Vn5F-63" value="items" style="text;strokeColor=none;fillColor=none;spacingLeft=4;spacingRight=4;overflow=hidden;rotatable=0;points=[[0,0.5],[1,0.5]];portConstraint=eastwest;fontSize=12;whiteSpace=wrap;html=1;" vertex="1" parent="sIfo7QnTkBE5jTo8Vn5F-61">
          <mxGeometry y="56" width="160" height="30" as="geometry" />
        </mxCell>
        <mxCell id="sIfo7QnTkBE5jTo8Vn5F-65" value="" style="edgeStyle=orthogonalEdgeStyle;rounded=0;orthogonalLoop=1;jettySize=auto;html=1;entryX=-0.006;entryY=0.1;entryDx=0;entryDy=0;entryPerimeter=0;" edge="1" parent="1" source="sIfo7QnTkBE5jTo8Vn5F-15" target="sIfo7QnTkBE5jTo8Vn5F-62">
          <mxGeometry relative="1" as="geometry" />
        </mxCell>
        <mxCell id="sIfo7QnTkBE5jTo8Vn5F-66" value="domain_policy_item_t" style="swimlane;fontStyle=0;childLayout=stackLayout;horizontal=1;startSize=26;horizontalStack=0;resizeParent=1;resizeParentMax=0;resizeLast=0;collapsible=1;marginBottom=0;align=center;fontSize=14;" vertex="1" parent="1">
          <mxGeometry x="1140" y="344" width="160" height="116" as="geometry" />
        </mxCell>
        <mxCell id="sIfo7QnTkBE5jTo8Vn5F-67" value="zone" style="text;strokeColor=none;fillColor=none;spacingLeft=4;spacingRight=4;overflow=hidden;rotatable=0;points=[[0,0.5],[1,0.5]];portConstraint=eastwest;fontSize=12;whiteSpace=wrap;html=1;" vertex="1" parent="sIfo7QnTkBE5jTo8Vn5F-66">
          <mxGeometry y="26" width="160" height="30" as="geometry" />
        </mxCell>
        <mxCell id="sIfo7QnTkBE5jTo8Vn5F-68" value="action" style="text;strokeColor=none;fillColor=none;spacingLeft=4;spacingRight=4;overflow=hidden;rotatable=0;points=[[0,0.5],[1,0.5]];portConstraint=eastwest;fontSize=12;whiteSpace=wrap;html=1;" vertex="1" parent="sIfo7QnTkBE5jTo8Vn5F-66">
          <mxGeometry y="56" width="160" height="30" as="geometry" />
        </mxCell>
        <mxCell id="sIfo7QnTkBE5jTo8Vn5F-69" value="expire" style="text;strokeColor=none;fillColor=none;spacingLeft=4;spacingRight=4;overflow=hidden;rotatable=0;points=[[0,0.5],[1,0.5]];portConstraint=eastwest;fontSize=12;whiteSpace=wrap;html=1;" vertex="1" parent="sIfo7QnTkBE5jTo8Vn5F-66">
          <mxGeometry y="86" width="160" height="30" as="geometry" />
        </mxCell>
        <mxCell id="sIfo7QnTkBE5jTo8Vn5F-71" value="" style="edgeStyle=orthogonalEdgeStyle;rounded=0;orthogonalLoop=1;jettySize=auto;html=1;entryX=-0.025;entryY=0.138;entryDx=0;entryDy=0;entryPerimeter=0;" edge="1" parent="1" source="sIfo7QnTkBE5jTo8Vn5F-63" target="sIfo7QnTkBE5jTo8Vn5F-66">
          <mxGeometry relative="1" as="geometry" />
        </mxCell>
        <mxCell id="sIfo7QnTkBE5jTo8Vn5F-72" value="dns_ternant_hostaddr_t" style="swimlane;fontStyle=0;childLayout=stackLayout;horizontal=1;startSize=26;horizontalStack=0;resizeParent=1;resizeParentMax=0;resizeLast=0;collapsible=1;marginBottom=0;align=center;fontSize=14;" vertex="1" parent="1">
          <mxGeometry x="1260" y="690" width="160" height="206" as="geometry" />
        </mxCell>
        <mxCell id="sIfo7QnTkBE5jTo8Vn5F-73" value="id" style="text;strokeColor=none;fillColor=none;spacingLeft=4;spacingRight=4;overflow=hidden;rotatable=0;points=[[0,0.5],[1,0.5]];portConstraint=eastwest;fontSize=12;whiteSpace=wrap;html=1;" vertex="1" parent="sIfo7QnTkBE5jTo8Vn5F-72">
          <mxGeometry y="26" width="160" height="30" as="geometry" />
        </mxCell>
        <mxCell id="sIfo7QnTkBE5jTo8Vn5F-74" value="domain" style="text;strokeColor=none;fillColor=none;spacingLeft=4;spacingRight=4;overflow=hidden;rotatable=0;points=[[0,0.5],[1,0.5]];portConstraint=eastwest;fontSize=12;whiteSpace=wrap;html=1;" vertex="1" parent="sIfo7QnTkBE5jTo8Vn5F-72">
          <mxGeometry y="56" width="160" height="30" as="geometry" />
        </mxCell>
        <mxCell id="sIfo7QnTkBE5jTo8Vn5F-75" value="addrlist" style="text;strokeColor=none;fillColor=none;spacingLeft=4;spacingRight=4;overflow=hidden;rotatable=0;points=[[0,0.5],[1,0.5]];portConstraint=eastwest;fontSize=12;whiteSpace=wrap;html=1;" vertex="1" parent="sIfo7QnTkBE5jTo8Vn5F-72">
          <mxGeometry y="86" width="160" height="30" as="geometry" />
        </mxCell>
        <mxCell id="sIfo7QnTkBE5jTo8Vn5F-76" value="exportidlist" style="text;strokeColor=none;fillColor=none;spacingLeft=4;spacingRight=4;overflow=hidden;rotatable=0;points=[[0,0.5],[1,0.5]];portConstraint=eastwest;fontSize=12;whiteSpace=wrap;html=1;" vertex="1" parent="sIfo7QnTkBE5jTo8Vn5F-72">
          <mxGeometry y="116" width="160" height="30" as="geometry" />
        </mxCell>
        <mxCell id="sIfo7QnTkBE5jTo8Vn5F-77" value="link" style="text;strokeColor=none;fillColor=none;spacingLeft=4;spacingRight=4;overflow=hidden;rotatable=0;points=[[0,0.5],[1,0.5]];portConstraint=eastwest;fontSize=12;whiteSpace=wrap;html=1;" vertex="1" parent="sIfo7QnTkBE5jTo8Vn5F-72">
          <mxGeometry y="146" width="160" height="30" as="geometry" />
        </mxCell>
        <mxCell id="sIfo7QnTkBE5jTo8Vn5F-78" value="headptr" style="text;strokeColor=none;fillColor=none;spacingLeft=4;spacingRight=4;overflow=hidden;rotatable=0;points=[[0,0.5],[1,0.5]];portConstraint=eastwest;fontSize=12;whiteSpace=wrap;html=1;" vertex="1" parent="sIfo7QnTkBE5jTo8Vn5F-72">
          <mxGeometry y="176" width="160" height="30" as="geometry" />
        </mxCell>
        <mxCell id="sIfo7QnTkBE5jTo8Vn5F-79" value="" style="edgeStyle=orthogonalEdgeStyle;rounded=0;orthogonalLoop=1;jettySize=auto;html=1;entryX=0;entryY=0.078;entryDx=0;entryDy=0;exitX=1;exitY=0.5;exitDx=0;exitDy=0;entryPerimeter=0;" edge="1" parent="1" source="sIfo7QnTkBE5jTo8Vn5F-17" target="sIfo7QnTkBE5jTo8Vn5F-72">
          <mxGeometry relative="1" as="geometry">
            <mxPoint x="610" y="731" as="sourcePoint" />
            <mxPoint x="790" y="930" as="targetPoint" />
            <Array as="points">
              <mxPoint x="660" y="661" />
              <mxPoint x="660" y="766" />
              <mxPoint x="1020" y="766" />
              <mxPoint x="1020" y="706" />
            </Array>
          </mxGeometry>
        </mxCell>
        <mxCell id="sIfo7QnTkBE5jTo8Vn5F-80" value="dns_ternant_hostaddrlist_t" style="swimlane;fontStyle=0;childLayout=stackLayout;horizontal=1;startSize=26;horizontalStack=0;resizeParent=1;resizeParentMax=0;resizeLast=0;collapsible=1;marginBottom=0;align=center;fontSize=14;" vertex="1" parent="1">
          <mxGeometry x="810" y="660" width="190" height="56" as="geometry" />
        </mxCell>
        <mxCell id="sIfo7QnTkBE5jTo8Vn5F-81" value="ISC_LIST(struct hostaddrentry)" style="text;strokeColor=none;fillColor=none;spacingLeft=4;spacingRight=4;overflow=hidden;rotatable=0;points=[[0,0.5],[1,0.5]];portConstraint=eastwest;fontSize=12;whiteSpace=wrap;html=1;" vertex="1" parent="sIfo7QnTkBE5jTo8Vn5F-80">
          <mxGeometry y="26" width="190" height="30" as="geometry" />
        </mxCell>
        <mxCell id="sIfo7QnTkBE5jTo8Vn5F-84" value="" style="edgeStyle=orthogonalEdgeStyle;rounded=0;orthogonalLoop=1;jettySize=auto;html=1;entryX=0;entryY=0.25;entryDx=0;entryDy=0;exitX=1;exitY=0.5;exitDx=0;exitDy=0;" edge="1" parent="1" source="sIfo7QnTkBE5jTo8Vn5F-18" target="sIfo7QnTkBE5jTo8Vn5F-80">
          <mxGeometry relative="1" as="geometry">
            <mxPoint x="610" y="671" as="sourcePoint" />
            <mxPoint x="880" y="736" as="targetPoint" />
          </mxGeometry>
        </mxCell>
        <mxCell id="sIfo7QnTkBE5jTo8Vn5F-85" value="" style="edgeStyle=orthogonalEdgeStyle;rounded=0;orthogonalLoop=1;jettySize=auto;html=1;entryX=0;entryY=0.5;entryDx=0;entryDy=0;" edge="1" parent="1" source="sIfo7QnTkBE5jTo8Vn5F-81" target="sIfo7QnTkBE5jTo8Vn5F-77">
          <mxGeometry relative="1" as="geometry" />
        </mxCell>
        <mxCell id="sIfo7QnTkBE5jTo8Vn5F-86" value="" style="edgeStyle=orthogonalEdgeStyle;rounded=0;orthogonalLoop=1;jettySize=auto;html=1;exitX=1;exitY=0.5;exitDx=0;exitDy=0;entryX=0;entryY=0.5;entryDx=0;entryDy=0;" edge="1" parent="1" source="sIfo7QnTkBE5jTo8Vn5F-27" target="sIfo7QnTkBE5jTo8Vn5F-36">
          <mxGeometry relative="1" as="geometry">
            <mxPoint x="870" y="1061" as="sourcePoint" />
            <mxPoint x="1020" y="1049" as="targetPoint" />
            <Array as="points">
              <mxPoint x="1000" y="1021" />
              <mxPoint x="1000" y="1041" />
            </Array>
          </mxGeometry>
        </mxCell>
        <mxCell id="sIfo7QnTkBE5jTo8Vn5F-87" value="exportidentry" style="swimlane;fontStyle=0;childLayout=stackLayout;horizontal=1;startSize=26;horizontalStack=0;resizeParent=1;resizeParentMax=0;resizeLast=0;collapsible=1;marginBottom=0;align=center;fontSize=14;" vertex="1" parent="1">
          <mxGeometry x="1530" y="750" width="160" height="86" as="geometry" />
        </mxCell>
        <mxCell id="sIfo7QnTkBE5jTo8Vn5F-88" value="exportid" style="text;strokeColor=none;fillColor=none;spacingLeft=4;spacingRight=4;overflow=hidden;rotatable=0;points=[[0,0.5],[1,0.5]];portConstraint=eastwest;fontSize=12;whiteSpace=wrap;html=1;" vertex="1" parent="sIfo7QnTkBE5jTo8Vn5F-87">
          <mxGeometry y="26" width="160" height="30" as="geometry" />
        </mxCell>
        <mxCell id="sIfo7QnTkBE5jTo8Vn5F-89" value="link" style="text;strokeColor=none;fillColor=none;spacingLeft=4;spacingRight=4;overflow=hidden;rotatable=0;points=[[0,0.5],[1,0.5]];portConstraint=eastwest;fontSize=12;whiteSpace=wrap;html=1;" vertex="1" parent="sIfo7QnTkBE5jTo8Vn5F-87">
          <mxGeometry y="56" width="160" height="30" as="geometry" />
        </mxCell>
        <mxCell id="sIfo7QnTkBE5jTo8Vn5F-91" value="" style="edgeStyle=orthogonalEdgeStyle;rounded=0;orthogonalLoop=1;jettySize=auto;html=1;" edge="1" parent="1" source="sIfo7QnTkBE5jTo8Vn5F-76" target="sIfo7QnTkBE5jTo8Vn5F-89">
          <mxGeometry relative="1" as="geometry" />
        </mxCell>
        <mxCell id="sIfo7QnTkBE5jTo8Vn5F-105" value="tag_internetacl_info_t" style="swimlane;fontStyle=0;childLayout=stackLayout;horizontal=1;startSize=26;horizontalStack=0;resizeParent=1;resizeParentMax=0;resizeLast=0;collapsible=1;marginBottom=0;align=center;fontSize=14;" vertex="1" parent="1">
          <mxGeometry x="780" y="561" width="160" height="56" as="geometry" />
        </mxCell>
        <mxCell id="sIfo7QnTkBE5jTo8Vn5F-106" value="ptrlist" style="text;strokeColor=none;fillColor=none;spacingLeft=4;spacingRight=4;overflow=hidden;rotatable=0;points=[[0,0.5],[1,0.5]];portConstraint=eastwest;fontSize=12;whiteSpace=wrap;html=1;" vertex="1" parent="sIfo7QnTkBE5jTo8Vn5F-105">
          <mxGeometry y="26" width="160" height="30" as="geometry" />
        </mxCell>
        <mxCell id="sIfo7QnTkBE5jTo8Vn5F-109" value="internetacl_ptr_entry" style="swimlane;fontStyle=0;childLayout=stackLayout;horizontal=1;startSize=26;horizontalStack=0;resizeParent=1;resizeParentMax=0;resizeLast=0;collapsible=1;marginBottom=0;align=center;fontSize=14;" vertex="1" parent="1">
          <mxGeometry x="1320" y="1180" width="160" height="86" as="geometry" />
        </mxCell>
        <mxCell id="sIfo7QnTkBE5jTo8Vn5F-110" value="link" style="text;strokeColor=none;fillColor=none;spacingLeft=4;spacingRight=4;overflow=hidden;rotatable=0;points=[[0,0.5],[1,0.5]];portConstraint=eastwest;fontSize=12;whiteSpace=wrap;html=1;" vertex="1" parent="sIfo7QnTkBE5jTo8Vn5F-109">
          <mxGeometry y="26" width="160" height="30" as="geometry" />
        </mxCell>
        <mxCell id="sIfo7QnTkBE5jTo8Vn5F-111" value="ptr" style="text;strokeColor=none;fillColor=none;spacingLeft=4;spacingRight=4;overflow=hidden;rotatable=0;points=[[0,0.5],[1,0.5]];portConstraint=eastwest;fontSize=12;whiteSpace=wrap;html=1;" vertex="1" parent="sIfo7QnTkBE5jTo8Vn5F-109">
          <mxGeometry y="56" width="160" height="30" as="geometry" />
        </mxCell>
        <mxCell id="sIfo7QnTkBE5jTo8Vn5F-114" value="" style="edgeStyle=orthogonalEdgeStyle;rounded=0;orthogonalLoop=1;jettySize=auto;html=1;" edge="1" parent="1" source="sIfo7QnTkBE5jTo8Vn5F-19" target="sIfo7QnTkBE5jTo8Vn5F-106">
          <mxGeometry relative="1" as="geometry" />
        </mxCell>
        <mxCell id="sIfo7QnTkBE5jTo8Vn5F-115" value="tag" style="edgeLabel;html=1;align=center;verticalAlign=middle;resizable=0;points=[];" vertex="1" connectable="0" parent="sIfo7QnTkBE5jTo8Vn5F-114">
          <mxGeometry x="-0.0387" y="2" relative="1" as="geometry">
            <mxPoint as="offset" />
          </mxGeometry>
        </mxCell>
        <mxCell id="sIfo7QnTkBE5jTo8Vn5F-116" value="" style="edgeStyle=orthogonalEdgeStyle;rounded=0;orthogonalLoop=1;jettySize=auto;html=1;entryX=0;entryY=0.5;entryDx=0;entryDy=0;exitX=1;exitY=0.5;exitDx=0;exitDy=0;" edge="1" parent="1" source="sIfo7QnTkBE5jTo8Vn5F-42" target="sIfo7QnTkBE5jTo8Vn5F-106">
          <mxGeometry relative="1" as="geometry">
            <mxPoint x="870" y="1061" as="sourcePoint" />
            <mxPoint x="1060" y="1141" as="targetPoint" />
            <Array as="points">
              <mxPoint x="1240" y="1161" />
              <mxPoint x="1240" y="880" />
              <mxPoint x="720" y="880" />
              <mxPoint x="720" y="602" />
            </Array>
          </mxGeometry>
        </mxCell>
        <mxCell id="sIfo7QnTkBE5jTo8Vn5F-117" value="" style="edgeStyle=orthogonalEdgeStyle;rounded=0;orthogonalLoop=1;jettySize=auto;html=1;entryX=0;entryY=0.163;entryDx=0;entryDy=0;entryPerimeter=0;" edge="1" parent="1" source="sIfo7QnTkBE5jTo8Vn5F-43" target="sIfo7QnTkBE5jTo8Vn5F-109">
          <mxGeometry relative="1" as="geometry" />
        </mxCell>
        <mxCell id="sIfo7QnTkBE5jTo8Vn5F-118" value="" style="edgeStyle=orthogonalEdgeStyle;rounded=0;orthogonalLoop=1;jettySize=auto;html=1;exitX=1;exitY=0.5;exitDx=0;exitDy=0;entryX=0;entryY=0;entryDx=0;entryDy=0;" edge="1" parent="1" source="sIfo7QnTkBE5jTo8Vn5F-111" target="sIfo7QnTkBE5jTo8Vn5F-24">
          <mxGeometry relative="1" as="geometry">
            <mxPoint x="1220" y="1201" as="sourcePoint" />
            <mxPoint x="1570" y="1140" as="targetPoint" />
            <Array as="points">
              <mxPoint x="1500" y="1251" />
              <mxPoint x="1500" y="1510" />
              <mxPoint x="650" y="1510" />
              <mxPoint x="650" y="920" />
            </Array>
          </mxGeometry>
        </mxCell>
        <mxCell id="sIfo7QnTkBE5jTo8Vn5F-119" value="" style="edgeStyle=orthogonalEdgeStyle;rounded=0;orthogonalLoop=1;jettySize=auto;html=1;entryX=0;entryY=0.5;entryDx=0;entryDy=0;exitX=1;exitY=0.5;exitDx=0;exitDy=0;" edge="1" parent="1" source="sIfo7QnTkBE5jTo8Vn5F-106" target="sIfo7QnTkBE5jTo8Vn5F-110">
          <mxGeometry relative="1" as="geometry">
            <mxPoint x="1010" y="711" as="sourcePoint" />
            <mxPoint x="1270" y="861" as="targetPoint" />
            <Array as="points">
              <mxPoint x="1220" y="602" />
              <mxPoint x="1220" y="1221" />
            </Array>
          </mxGeometry>
        </mxCell>
      </root>
    </mxGraphModel>
  </diagram>
</mxfile>
